<svg width="105" height="106" viewBox="0 0 105 106" fill="none" xmlns="http://www.w3.org/2000/svg">
<path d="M13.3035 75.0833L36.0849 48.1344C37.8393 46.0591 41.0127 46.0814 42.7385 48.1812L58.165 66.9512C59.8048 68.9464 62.7803 69.0833 64.5915 67.2468L70.8451 60.9059C72.6809 59.0446 75.7048 59.2144 77.3267 61.2699L91.7101 79.5" stroke="#23A6F0" stroke-width="3" stroke-linecap="round" stroke-linejoin="round"/>
<path d="M87.3542 13.25H17.6594C15.2537 13.25 13.3035 15.2274 13.3035 17.6667V88.3333C13.3035 90.7726 15.2537 92.75 17.6594 92.75H87.3542C89.7599 92.75 91.7101 90.7726 91.7101 88.3333V17.6667C91.7101 15.2274 89.7599 13.25 87.3542 13.25Z" stroke="#23A6F0" stroke-width="3" stroke-linecap="round" stroke-linejoin="round"/>
<path d="M61.2187 35.3333C61.2187 32.8941 63.1689 30.9167 65.5746 30.9167C67.9803 30.9167 69.9305 32.8941 69.9305 35.3333C69.9305 37.7726 67.9803 39.75 65.5746 39.75C63.1689 39.75 61.2187 37.7726 61.2187 35.3333Z" stroke="#23A6F0" stroke-width="3" stroke-linecap="round" stroke-linejoin="round"/>
</svg>
