<svg width="57" height="57" viewBox="0 0 57 57" fill="none" xmlns="http://www.w3.org/2000/svg">
<path d="M7.59155 40.1158L19.7417 25.9407C20.6773 24.8491 22.3699 24.8608 23.2903 25.9653L31.5178 35.8384C32.3923 36.8878 33.9793 36.9598 34.9452 35.9938L38.2805 32.6585C39.2596 31.6794 40.8724 31.7688 41.7373 32.85L49.4086 42.439" stroke="#23A6F0" stroke-width="3" stroke-linecap="round" stroke-linejoin="round"/>
<path d="M47.0854 7.5915H9.91472C8.63167 7.5915 7.59155 8.63162 7.59155 9.91467V47.0853C7.59155 48.3684 8.63167 49.4085 9.91472 49.4085H47.0854C48.3684 49.4085 49.4086 48.3684 49.4086 47.0853V9.91467C49.4086 8.63162 48.3684 7.5915 47.0854 7.5915Z" stroke="#23A6F0" stroke-width="3" stroke-linecap="round" stroke-linejoin="round"/>
<path d="M33.1464 19.2073C33.1464 17.9243 34.1865 16.8842 35.4695 16.8842C36.7526 16.8842 37.7927 17.9243 37.7927 19.2073C37.7927 20.4904 36.7526 21.5305 35.4695 21.5305C34.1865 21.5305 33.1464 20.4904 33.1464 19.2073Z" stroke="#23A6F0" stroke-width="3" stroke-linecap="round" stroke-linejoin="round"/>
</svg>
